HIERARCHY
ROOT Hips
{
  OFFSET -31.5692 30.0904 122.763
  CHANNELS 6 Xposition Yposition Zposition Zrotation Xrotation Yrotation
  JOINT LeftUpLeg
  {
    OFFSET 8.64259 1.95398 -2.38835
    CHANNELS 3 Zrotation Xrotation Yrotation
    JOINT LeftLeg
    {
      OFFSET 43.7702 0 0
      CHANNELS 3 Zrotation Xrotation Yrotation
      JOINT LeftFoot
      {
        OFFSET 40.6238 0 0
        CHANNELS 3 Zrotation Xrotation Yrotation
        JOINT LeftToeBase
        {
          OFFSET 12.7242 0 0
          CHANNELS 3 Zrotation Xrotation Yrotation
          End Site
          {
            OFFSET 0 0 0
          }
        }
      }
    }
  }
  JOINT RightUpLeg
  {
    OFFSET -8.2249 1.95398 -2.59336
    CHANNELS 3 Zrotation Xrotation Yrotation
    JOINT RightLeg
    {
      OFFSET 43.5653 0 0
      CHANNELS 3 Zrotation Xrotation Yrotation
      JOINT RightFoot
      {
        OFFSET 40.6238 0 0
        CHANNELS 3 Zrotation Xrotation Yrotation
        JOINT RightToeBase
        {
          OFFSET 12.7242 0 0
          CHANNELS 3 Zrotation Xrotation Yrotation
          End Site
          {
            OFFSET 0 0 0
          }
        }
      }
    }
  }
  JOINT Spine
  {
    OFFSET 0.165834 0.87714 6.61349
    CHANNELS 3 Zrotation Xrotation Yrotation
    JOINT Spine1
    {
      OFFSET 7.38963 1.71661e-005 0
      CHANNELS 3 Zrotation Xrotation Yrotation
      JOINT Spine2
      {
        OFFSET 11.9445 1.14441e-005 0
        CHANNELS 3 Zrotation Xrotation Yrotation
        JOINT Spine3
        {
          OFFSET 14.7254 4.19617e-005 0
          CHANNELS 3 Zrotation Xrotation Yrotation
          JOINT Spine4
          {
            OFFSET 10.9679 0 0
            CHANNELS 3 Zrotation Xrotation Yrotation
            JOINT RightShoulder
            {
              OFFSET 2.46616 -1.6653 3.69651
              CHANNELS 3 Zrotation Xrotation Yrotation
              JOINT RightArm
              {
                OFFSET 13.0012 0 0
                CHANNELS 3 Zrotation Xrotation Yrotation
                JOINT RightForeArm
                {
                  OFFSET 28.7848 1.62311e-005 0
                  CHANNELS 3 Zrotation Xrotation Yrotation
                  JOINT RightHand
                  {
                    OFFSET 26.5688 1.62095e-005 0
                    CHANNELS 3 Zrotation Xrotation Yrotation
                    End Site
                    {
                      OFFSET 0 0 0
                    }
                  }
                }
              }
            }
            JOINT LeftShoulder
            {
              OFFSET 2.38034 -1.29275 -3.7523
              CHANNELS 3 Zrotation Xrotation Yrotation
              JOINT LeftArm
              {
                OFFSET 16.3182 6.07031e-005 0
                CHANNELS 3 Zrotation Xrotation Yrotation
                JOINT LeftForeArm
                {
                  OFFSET 27.0901 0 0
                  CHANNELS 3 Zrotation Xrotation Yrotation
                  JOINT LeftHand
                  {
                    OFFSET 24.5451 1.51738e-005 0
                    CHANNELS 3 Zrotation Xrotation Yrotation
                    End Site
                    {
                      OFFSET 0 0 0
                    }
                  }
                }
              }
            }
            JOINT Neck
            {
              OFFSET 5.0226 -0.0266342 0
              CHANNELS 3 Zrotation Xrotation Yrotation
              JOINT Head
              {
                OFFSET 6.69364 2.86102e-005 0
                CHANNELS 3 Zrotation Xrotation Yrotation
                End Site
                {
                  OFFSET 0 0 0
                }
              }
            }
          }
        }
      }
    }
  }
}
MOTION
Frames:	9
Frame Time:	0.0416667
129.794 89.8385 139.074 -68.8561 -49.5807 -71.1736 -173.857 46.4808 108.032 -48.2813 30.6919 -0.803366 70.7074 7.45459 0.95458 38.3087 3.44398 4.14128 167.499 42.2263 73.7017 -57.785 -2.50831 1.30693 74.3303 -7.99976 -2.52928 26.0904 -0.582798 8.18439 0.96322 9.1516 -90.0135 8.57259 1.91605 -0.148613 -3.09697 1.90765 -0.232826 -25.6431 1.8721 0.434315 -5.63046 1.87209 0.43431 85.6566 -30.9558 -114.777 34.9309 7.65941 12.9282 -32.8811 -36.7139 -54.7817 -47.9952 1.07097 -13.7506 -90.8767 -45.0249 76.2204 -4.7471 18.7298 -45.9851 33.9603 24.7083 -54.4273 34.0985 -17.56 -48.2933 36.9472 -1.89396 -9.40271 -7.5898 2.47985 2.53351 
127.03 88.0573 137.232 -74.4968 -45.5779 -76.2793 -172.123 44.2832 111.155 -51.4878 28.7049 -0.272284 72.3779 8.78168 1.1339 40.0254 3.79047 6.57101 167.683 44.4714 68.2367 -57.7958 -1.80994 0.675282 73.2963 -7.66683 -4.01127 23.8111 0.415445 7.67772 0.738737 9.27172 -90.2523 8.33427 1.36315 -0.581278 -3.33615 1.33625 -0.640725 -25.8767 1.47483 -0.144639 -5.86409 1.47481 -0.144652 87.7953 -30.1845 -111.017 29.4215 18.5051 20.8372 -25.2488 -24.5211 -46.7206 -50.0001 2.70143 -14.7826 -90.9113 -43.8241 75.8551 -8.62152 16.2065 -47.7351 32.927 18.4822 -55.1217 26.5744 -15.5766 -54.2975 34.6666 0.055938 -10.8645 -7.33916 4.69496 4.83749 
123.737 85.879 135.21 -79.6223 -40.0441 -80.4905 -170.152 40.8186 115.284 -53.7599 26.3177 0.612577 74.0773 9.5183 -1.22955 44.11 5.18222 10.5556 167.834 48.8745 64.4646 -58.6214 1.81681 1.07282 73.4469 -7.63486 -3.75135 21.0732 1.2966 8.41937 0.449239 9.29436 -90.4144 8.2866 0.714171 -0.861955 -3.38443 0.675556 -0.892552 -25.92 0.940211 -0.607465 -5.90732 0.940208 -0.607476 89.5711 -28.7696 -108.096 20.5506 19.7199 27.3889 -17.8828 -14.7326 -40.2469 -47.1267 5.14135 -19.3731 -89.7119 -39.83 76.7778 -13.2438 12.6706 -49.1743 33.3587 17.3483 -55.3643 24.9133 -15.5212 -57.0423 33.0914 2.888 -12.3807 -9.21698 7.66648 7.39905 
118.973 84.7252 132.606 -82.7666 -32.2026 -84.1696 -166.098 33.9452 118.376 -50.0045 23.451 0.392191 73.7286 9.03864 -2.47729 46.2363 5.98749 13.1886 169.056 54.2488 63.3492 -59.3207 -1.5647 1.49662 71.6897 -7.04578 -5.17637 20.8731 1.49786 7.96982 0.298113 9.15096 -90.5221 8.57266 0.363819 -1.05487 -3.09867 0.317055 -1.06986 -25.6316 0.664024 -0.896779 -5.61893 0.664024 -0.896776 90.829 -25.1525 -107 12.2083 18.3186 32.9077 -19.2468 -18.4204 -38.1568 -42.5677 5.0947 -21.6201 -88.6033 -36.8567 77.9091 -15.2044 8.80569 -46.8561 34.7997 16.8204 -58.7863 24.3077 -15.3302 -57.5418 30.337 8.7079 -7.68707 -8.54834 11.1009 6.53028 
112.306 85.4312 129.014 -84.9754 -24.8277 -88.9299 -162.681 22.3895 119.297 -38.5737 20.9726 0.438012 60.1303 0.364146 -5.42887 55.5847 11.3412 13.3407 168.156 56.8827 64.9566 -59.4131 -8.14205 2.36941 70.12 -6.1018 -4.58116 24.0819 0.614928 6.42205 0.0263833 8.99391 -90.3454 8.88523 -0.101105 -0.676725 -2.78589 -0.130797 -0.671624 -25.3196 0.106943 -0.675835 -5.307 0.106942 -0.675827 90.2446 -22.774 -109.322 8.3559 17.4782 36.6424 -21.0676 -19.9732 -40.2981 -42.2315 5.05491 -22.0378 -87.619 -35.1578 79.2282 -13.9704 6.9977 -39.9415 32.7642 12.8485 -58.6963 21.4087 -14.3444 -60.2542 26.8405 15.2513 -1.39196 -8.69458 14.8423 6.25519 
104.004 87.0098 124.39 -84.8545 -17.2444 -93.171 -162.88 7.2614 117.97 -22.5096 22.6102 2.85191 44.9696 -7.685 -4.90203 52.0911 9.89594 9.53828 164.695 56.9504 70.4342 -59.5838 -11.6569 3.98809 65.9926 -2.70924 -0.758273 27.3237 -0.803547 6.96425 -0.124275 8.57859 -90.0924 9.7161 -0.289488 -0.159449 -1.95482 -0.296228 -0.14656 -24.4901 -0.228186 -0.239086 -4.47742 -0.228179 -0.239081 90.3854 -22.6527 -109.071 7.9178 17.4587 34.6602 -25.6195 -23.8795 -45.6266 -44.7789 4.67919 -21.0169 -87.2386 -38.0687 80.5788 -7.80616 7.90046 -28.4944 30.0002 12.1008 -59.0781 21.2878 -14.0906 -59.776 21.4611 21.4039 8.88652 -9.13542 17.7504 2.78817 
95.5623 87.4696 118.753 -82.0099 -9.60861 -94.2897 -168.462 1.80895 114.707 -27.6193 27.0373 8.58214 52.5537 -3.39269 3.90062 16.0422 -6.82025 0.713588 161.697 54.8975 79.5339 -62.3563 -10.5204 5.75792 70.6081 -5.71071 -1.63929 26.0638 -0.147158 6.213 0.149739 8.132 -90.2127 10.6103 0.200456 -0.439358 -1.06066 0.180929 -0.447765 -23.5956 0.323242 -0.3588 -3.58292 0.323226 -0.358811 89.7025 -24.39 -109.743 7.0928 15.9242 29.5576 -23.8003 -21.9004 -46.5994 -46.1145 4.67857 -20.1777 -86.8535 -40.1416 81.6746 -6.05436 12.4266 -20.1312 28.4238 10.4479 -56.9879 21.9386 -13.4589 -56.6643 17.5668 25.7862 17.0771 -8.51553 20.2707 1.20524 
88.8733 86.0434 112.844 -80.8139 -0.711181 -96.0611 -172.052 3.33571 109.877 -43.4338 20.892 9.65494 60.5389 1.65764 6.32031 20.8536 -2.37075 -4.03509 163.374 54.1266 86.6358 -69.7005 -9.69509 3.94243 78.6869 -11.3651 -3.78037 27.4354 -0.81071 6.79022 0.699302 8.13719 -90.2802 10.6036 1.26391 -0.670057 -1.067 1.23322 -0.725046 -23.6068 1.40686 -0.25915 -3.59414 1.40689 -0.259149 88.0367 -25.5998 -112.682 9.00744 15.456 19.9248 -19.5355 -20.0117 -42.0774 -47.4861 5.0002 -19.895 -86.885 -45.7285 82.6684 -5.96229 15.3231 -11.1769 27.7739 12.2575 -55.3959 26.196 -15.0796 -54.0998 16.4065 28.8952 21.4143 -6.54987 22.4587 0.288211 
82.3095 84.9088 106.443 -80.9546 7.45329 -95.1704 -174.498 10.8081 107.175 -63.6106 19.5725 8.80971 67.7064 6.03455 8.55851 26.9599 -0.226638 -1.82619 164.122 48.7204 93.9551 -73.0772 -8.65832 3.33935 85.561 -15.9019 -2.63079 27.7348 -1.08093 7.54149 1.39299 8.46246 -90.458 9.96238 2.56813 -1.11918 -1.7066 2.51643 -1.23118 -24.2616 2.78569 -0.295084 -4.24898 2.7857 -0.295077 86.586 -25.5828 -115.699 14.2648 19.219 8.80311 -19.6531 -17.3231 -42.3067 -42.7267 5.3511 -22.2014 -86.9173 -51.7536 83.6318 -11.0679 11.6689 -0.932573 25.3912 12.3679 -52.9797 28.9693 -14.213 -47.5983 18.1765 31.5661 23.45 -7.47784 24.2042 0.857013 
